<mxfile host="app.diagrams.net" modified="2023-10-11T07:25:23.971Z" agent="Mozilla/5.0 (Windows NT 10.0; Win64; x64) AppleWebKit/537.36 (KHTML, like Gecko) Chrome/117.0.0.0 Safari/537.36" version="22.0.4" etag="PJbybRuu5oiBel61yD3k" type="github">
  <diagram name="第 1 页" id="ukChPgtnxptm7X9d3SpE">
    <mxGraphModel>
      <root>
        <mxCell id="0" />
        <mxCell id="1" parent="0" />
      </root>
    </mxGraphModel>
  </diagram>
</mxfile>
